<svg width="1080" height="1080" viewBox="0 0 1080 1080" fill="none" xmlns="http://www.w3.org/2000/svg">
<path fill-rule="evenodd" clip-rule="evenodd" d="M649.644 340.476C1071.39 340.477 1027.62 748.906 863.275 904.059C722.747 1036.72 464.1 1067.1 362.487 934.217L362.081 934.21C361.125 932.774 360.199 931.319 359.266 929.877C352.087 919.906 345.759 909.062 340.398 897.315C265.937 752.271 301.057 586.522 371.445 482.542C372.154 481.595 375.004 477.42 380.203 471.387C417.169 423.62 516.847 340.477 649.644 340.476ZM580.483 398.757C315.015 398.76 252.625 891.27 453.551 935.192C542.592 952.474 625.663 901.009 643.352 852.274C669.682 779.727 616.023 686.57 529.508 686.567C633.003 686.565 760.044 599.98 718.385 483.46C697.938 426.274 641.47 398.698 575.805 398.451C577.352 398.545 578.916 398.639 580.483 398.757Z" fill="url(#paint0_linear_993_45)"/>
<path d="M506.218 71.7818C638.175 40.7097 871.045 71.7785 975.177 156.926V431.006C898.899 350.569 791.045 300.408 671.484 300.408C440.296 300.408 252.881 487.953 252.881 719.3C252.881 826.827 293.37 924.888 359.92 999.057C202.079 923.855 90.4985 748.258 100.639 545.305C110.99 338.172 241.767 134.054 506.218 71.7818Z" fill="url(#paint1_linear_993_45)"/>
<defs>
<linearGradient id="paint0_linear_993_45" x1="118.299" y1="206.145" x2="862.089" y2="858.697" gradientUnits="userSpaceOnUse">
<stop stop-color="#E79A01"/>
<stop offset="1" stop-color="#E76C01"/>
</linearGradient>
<linearGradient id="paint1_linear_993_45" x1="118.299" y1="206.145" x2="862.089" y2="858.697" gradientUnits="userSpaceOnUse">
<stop stop-color="#E79A01"/>
<stop offset="1" stop-color="#E76C01"/>
</linearGradient>
</defs>
</svg>
